<svg width="62" height="23" viewBox="0 0 62 23" fill="none" xmlns="http://www.w3.org/2000/svg">
<g clip-path="url(#clip0_295_7962)">
<path d="M19.8658 15.0778V8.99667H17.7268V7.328H23.9802V8.99667H21.826V15.0778H19.8658Z" fill="white"/>
<path d="M29.872 15.0778L28.8601 12.3643H27.4967V15.0778H25.5334V7.328H29.254C29.9667 7.328 30.5052 7.42794 30.8688 7.62782C31.2339 7.82618 31.4747 8.0995 31.5899 8.44853C31.7065 8.79831 31.7656 9.26545 31.7656 9.85069C31.7656 10.392 31.6959 10.8614 31.5565 11.2589C31.4172 11.6572 31.1415 11.9464 30.7294 12.1281L31.9231 15.0778H29.872ZM28.5086 10.8107C28.9146 10.8107 29.2009 10.7888 29.3691 10.7441C29.5387 10.6979 29.6493 10.6131 29.7024 10.4897C29.7569 10.3648 29.7842 10.1558 29.7842 9.86281C29.7842 9.56223 29.7607 9.35024 29.7145 9.22684C29.6698 9.10418 29.563 9.02014 29.3933 8.97547C29.2252 8.92929 28.9389 8.90582 28.5329 8.90582H27.4967V10.8107H28.5086Z" fill="white"/>
<path d="M38.6403 15.0778L38.1767 13.615H35.4166L34.9773 15.0778H33.0171L35.4954 7.328H38.1555L40.6338 15.0778H38.6403ZM36.8133 9.0633H36.7558L35.8681 12.0251H37.7162L36.8133 9.0633Z" fill="white"/>
<path d="M47.2703 14.9779C47.0136 15.0309 46.6917 15.0748 46.3038 15.1112C45.9176 15.149 45.5563 15.1687 45.2192 15.1687C44.2414 15.1687 43.5195 15.0491 43.053 14.8083C42.5879 14.5683 42.2811 14.1776 42.1319 13.6363C41.9819 13.0957 41.9077 12.2849 41.9077 11.2045C41.9077 10.1385 41.9842 9.33516 42.138 8.79382C42.291 8.25325 42.6 7.85955 43.0651 7.61273C43.5316 7.3644 44.2497 7.24023 45.2192 7.24023C45.5563 7.24023 45.913 7.26068 46.2887 7.3008C46.6644 7.34169 46.9764 7.39166 47.2249 7.45223V8.93919C46.4591 8.86499 45.9524 8.82714 45.704 8.82714C45.0874 8.82714 44.6625 8.87484 44.4284 8.96947C44.1959 9.0626 44.0475 9.25718 43.9831 9.55396C43.9202 9.85075 43.8892 10.4012 43.8892 11.2045C43.8892 12.0085 43.9202 12.5582 43.9831 12.855C44.0475 13.1502 44.1959 13.3448 44.4284 13.4395C44.6625 13.5326 45.0874 13.5788 45.704 13.5788C46.2592 13.5788 46.781 13.5417 47.2703 13.4667V14.9779Z" fill="white"/>
<path d="M53.7828 15.0778L51.5862 11.9252H51.1014V15.0778H49.1382V7.328H51.1014V10.3474H51.5862L53.804 7.328H55.9551L53.1495 11.0015L55.9914 15.0778H53.7828Z" fill="white"/>
<mask id="mask0_295_7962" style="mask-type:luminance" maskUnits="userSpaceOnUse" x="0" y="1" width="9" height="18">
<path d="M0.284668 1.23584H8.04077V18.4987H0.284668V1.23584Z" fill="white"/>
</mask>
<g mask="url(#mask0_295_7962)">
<path d="M1.89775 1.2406L0.284424 3.73452L5.21379 11.3541V18.4785L7.96933 14.2197V10.5462L1.89775 1.2406Z" fill="#F97316"/>
</g>
<mask id="mask1_295_7962" style="mask-type:luminance" maskUnits="userSpaceOnUse" x="8" y="1" width="5" height="8">
<path d="M8.21069 1.24036H12.8992V8.46773H8.21069V1.24036Z" fill="white"/>
</mask>
<g mask="url(#mask1_295_7962)">
<path d="M11.2856 1.24036L8.21948 5.93898L9.85251 8.44199L12.8989 3.73428L11.2856 1.24036Z" fill="white"/>
</g>
</g>
<defs>
<clipPath id="clip0_295_7962">
<rect width="60.9339" height="22.2503" fill="white" transform="translate(0.283936 0.416626)"/>
</clipPath>
</defs>
</svg>
